<svg xmlns="http://www.w3.org/2000/svg" version="1.1" viewBox="-5.0 -10.0 110.0 135.0">
 <path d="m41.59 67.539c-0.17188 0-0.35156-0.039062-0.51172-0.10937-0.44922-0.19922-0.73828-0.64844-0.73828-1.1406v-5.5781c0-0.41016-0.33984-0.75-0.75-0.75h-4.0898c-2.8984 0-5.25-2.3516-5.25-5.25v-17c0-2.8984 2.3516-5.25 5.25-5.25h29c2.8984 0 5.25 2.3516 5.25 5.25v17c0 2.8984-2.3516 5.25-5.25 5.25h-13.73c-0.19141 0-0.35938 0.070312-0.5 0.19141l-7.8398 7.0703c-0.23828 0.20703-0.53906 0.31641-0.83984 0.31641zm-6.0898-32.578c-1.5195 0-2.75 1.2305-2.75 2.75v17c0 1.5195 1.2305 2.75 2.75 2.75h4.0898c1.7891 0 3.25 1.4609 3.25 3.25v2.7695l5.75-5.1914c0.60156-0.53906 1.3711-0.83984 2.1797-0.83984h13.73c1.5195 0 2.75-1.2305 2.75-2.75v-17c0-1.5195-1.2305-2.75-2.75-2.75h-29z"/>
<text x="0.0" y="117.5" font-size="5.0" font-weight="bold" font-family="Arbeit Regular, Helvetica, Arial-Unicode, Arial, Sans-serif" fill="#000000">Created by creative_visionary</text><text x="0.0" y="122.5" font-size="5.0" font-weight="bold" font-family="Arbeit Regular, Helvetica, Arial-Unicode, Arial, Sans-serif" fill="#000000">from Noun Project</text></svg>