<svg xmlns="http://www.w3.org/2000/svg" xmlns:xlink="http://www.w3.org/1999/xlink" viewBox="0 0 100 125" version="1.1" x="0px" y="0px"><title>Profile 1.3</title><desc>Created with Sketch.</desc><g stroke="none" stroke-width="1" fill="none" fill-rule="evenodd"><g fill-rule="nonzero" fill="#000000"><path d="M67.5,69 C67.5,69.8284271 66.8284271,70.5 66,70.5 C65.1715729,70.5 64.5,69.8284271 64.5,69 C64.5,61.9212482 59.2737538,58.5 50,58.5 C40.7262462,58.5 35.5,61.9212482 35.5,69 C35.5,69.8284271 34.8284271,70.5 34,70.5 C33.1715729,70.5 32.5,69.8284271 32.5,69 C32.5,59.9315883 39.2696262,55.5 50,55.5 C60.7303738,55.5 67.5,59.9315883 67.5,69 Z M50,53.5 C44.4678443,53.5 40.5,47.3736534 40.5,41 C40.5,34.8329906 44.4136452,29.5 50,29.5 C55.5863548,29.5 59.5,34.8329906 59.5,41 C59.5,47.3736534 55.5321557,53.5 50,53.5 Z M50,50.5 C53.533328,50.5 56.5,45.9194621 56.5,41 C56.5,36.3245573 53.693327,32.5 50,32.5 C46.306673,32.5 43.5,36.3245573 43.5,41 C43.5,45.9194621 46.466672,50.5 50,50.5 Z"/></g></g><text x="0" y="115" fill="#000000" font-size="5px" font-weight="bold" font-family="'Helvetica Neue', Helvetica, Arial-Unicode, Arial, Sans-serif">Created by Landan Lloyd</text><text x="0" y="120" fill="#000000" font-size="5px" font-weight="bold" font-family="'Helvetica Neue', Helvetica, Arial-Unicode, Arial, Sans-serif">from the Noun Project</text></svg>