<svg xmlns="http://www.w3.org/2000/svg" version="1.1" viewBox="-5.0 -10.0 110.0 135.0">
 <g>
  <path d="m46.648 64.449c-9.8984 0-17.949-8.0508-17.949-17.949s8.0508-17.949 17.949-17.949c9.9023 0 17.953 8.0508 17.953 17.949s-8.0508 17.949-17.953 17.949zm0-33.398c-8.5195 0-15.449 6.9297-15.449 15.449s6.9297 15.449 15.449 15.449c8.5234 0 15.453-6.9297 15.453-15.449s-6.9297-15.449-15.453-15.449z"/>
  <path d="m70.051 71.449c-0.32031 0-0.64062-0.12109-0.87891-0.37109l-11.75-11.738c-0.48828-0.48828-0.48828-1.2812 0-1.7695 0.48828-0.48828 1.2812-0.48828 1.7695 0l11.75 11.75c0.48828 0.48828 0.48828 1.2812 0 1.7695-0.25 0.23828-0.57031 0.35938-0.89062 0.35938z"/>
 </g>
<text x="0.0" y="117.5" font-size="5.0" font-weight="bold" font-family="Arbeit Regular, Helvetica, Arial-Unicode, Arial, Sans-serif" fill="#000000">Created by creative_visionary</text><text x="0.0" y="122.5" font-size="5.0" font-weight="bold" font-family="Arbeit Regular, Helvetica, Arial-Unicode, Arial, Sans-serif" fill="#000000">from Noun Project</text></svg>